<svg
      xmlns="http://www.w3.org/2000/svg"
      width="4000"
      height="4000"
      version="1.1"
      viewBox="0 0 4000 4000"
      xmlSpace="preserve"
    >
      <g transform="matrix(1.33333 0 0 -1.33333 0 4000)">
        <g transform="scale(.1)">
          <g transform="scale(1.20378)">
            <path
              fill="#000"
              fillOpacity="1"
              fillRule="nonzero"
              stroke="none"
              d="M7728.83 13085.7c-393.92 0-714.25-320.3-714.25-714.2V8800.2c0-393.76 320.33-714.33 714.25-714.33h7142.57c393.8 0 714.3 320.57 714.3 714.33v3571.3c0 393.9-320.5 714.2-714.3 714.2zm7142.57-5714.08H7728.83c-787.67 0-1428.52 640.73-1428.52 1428.58v3571.3c0 787.6 640.85 1428.5 1428.52 1428.5h7142.57c787.9 0 1428.6-640.9 1428.6-1428.5V8800.2c0-787.85-640.7-1428.58-1428.6-1428.58"
            ></path>
          </g>
          <path
            fill="#000"
            fillOpacity="1"
            fillRule="nonzero"
            stroke="none"
            d="M8014.09 10593.5c-1185.18 0-2149.53 964.3-2149.53 2149.5s964.35 2149.5 2149.53 2149.5c237.42 0 429.91-192.5 429.91-429.9 0-237.6-192.49-429.9-429.91-429.9-711.19 0-1289.71-578.5-1289.71-1289.7s578.52-1289.7 1289.71-1289.7c237.42 0 429.91-192.3 429.91-429.9 0-237.7-192.49-429.9-429.91-429.9"
          ></path>
          <g transform="scale(1.30928)">
            <path
              fill="#000"
              fillOpacity="1"
              fillRule="nonzero"
              stroke="none"
              d="M14658.3 8091.11c-181.6 0-328.4 146.8-328.4 328.35 0 181.48 146.8 328.35 328.4 328.35 543.2 0 985 441.85 985 985.05 0 543.24-441.8 985.04-985 985.04-181.6 0-328.4 146.9-328.4 328.4 0 181.3 146.8 328.3 328.4 328.3 905.1 0 1641.7-736.5 1641.7-1641.74 0-905.23-736.6-1641.75-1641.7-1641.75"
            ></path>
          </g>
          <path
            fill="#000"
            fillOpacity="1"
            fillRule="nonzero"
            stroke="none"
            d="M11023.4 13602.8c-237 0-429.9-192.7-429.9-429.9s192.9-429.9 429.9-429.9c237 0 429.9 192.7 429.9 429.9s-192.9 429.9-429.9 429.9zm0-1719.6c-711.2 0-1289.68 578.5-1289.68 1289.7s578.48 1289.7 1289.68 1289.7 1289.8-578.5 1289.8-1289.7-578.6-1289.7-1289.8-1289.7"
          ></path>
          <g transform="scale(1.0719)">
            <path
              fill="#000"
              fillOpacity="1"
              fillRule="nonzero"
              stroke="none"
              d="M15096.8 12690.3c-221.3 0-401-179.7-401-401s179.7-401.1 401-401.1 401.1 179.8 401.1 401.1-179.8 401-401.1 401zm0-1604.2c-663.5 0-1203.2 539.7-1203.2 1203.2s539.7 1203.2 1203.2 1203.2 1203.2-539.7 1203.2-1203.2-539.7-1203.2-1203.2-1203.2"
            ></path>
          </g>
          <g transform="scale(1.23015)">
            <path
              fill="#000"
              fillOpacity="1"
              fillRule="nonzero"
              stroke="none"
              d="M11057.9 15601.1c-192.6 0-349.4-156.9-349.4-349.5 0-192.7 156.8-349.5 349.4-349.5 192.7 0 349.5 156.8 349.5 349.5 0 192.6-156.8 349.5-349.5 349.5zm0-1397.9c-578.1 0-1048.4 470.2-1048.4 1048.4 0 578.1 470.3 1048.4 1048.4 1048.4 578.2 0 1048.5-470.3 1048.5-1048.4 0-578.2-470.3-1048.4-1048.5-1048.4"
            ></path>
          </g>
          <g transform="scale(1.12465)">
            <path
              fill="#000"
              fillOpacity="1"
              fillRule="nonzero"
              stroke="none"
              d="M12095.2 14006.4c-211.1 0-382.2 171.2-382.2 382.2v1529.1c0 211.1 171.1 382.3 382.2 382.3s382.3-171.2 382.3-382.3v-1529.1c0-211-171.2-382.2-382.3-382.2"
            ></path>
          </g>
          <g transform="scale(1.43314)">
            <path
              fill="#000"
              fillOpacity="1"
              fillRule="nonzero"
              stroke="none"
              d="M9485.67 2442.19c-1712.88 0-3336.95 638.95-4596.61 1813.64-1318.84 1229.74-2079.91 2899.22-2142.74 4700.3-62.84 1801.17 579.88 3519.37 1809.66 4838.07 1229.93 1318.9 2899.11 2079.9 4700.26 2142.8 161.74 8.5 304.37-123.7 310.23-289.5 5.72-165.5-123.71-304.3-289.36-310.2-1640.95-57.3-3161.79-750.5-4282.3-1952.2-1120.65-1201.7-1706.11-2767-1648.84-4407.89 57.28-1641.09 750.53-3162.08 1952.18-4282.56 1201.81-1120.54 2773.14-1703.81 4408.08-1648.68 1640.97 57.42 3161.87 750.8 4282.37 1952.14 1120.6 1201.7 1706.2 2767.14 1649 4407.94-31.6 899.65-251.9 1758.25-655.6 2552.15-75 147.7-16.1 328.2 131.5 403.4 148 75.1 328.2 16.2 403.5-131.5 443.5-872.5 685.7-1815.6 720-2802.97 63-1801.01-579.7-3519.41-1809.5-4838.26-1229.8-1318.5-2899-2079.63-4700.33-2142.29-80.53-2.93-161.26-4.39-241.5-4.39"
            ></path>
          </g>
          <g transform="scale(1.4939)">
            <path
              fill="#000"
              fillOpacity="1"
              fillRule="nonzero"
              stroke="none"
              d="M11120.1 16012.2c0 159 128.9 287.8 287.8 287.8s287.8-128.8 287.8-287.8c0-158.9-128.9-287.8-287.8-287.8s-287.8 128.9-287.8 287.8"
            ></path>
          </g>
          <g transform="scale(1.4939)">
            <path
              fill="#000"
              fillOpacity="1"
              fillRule="nonzero"
              stroke="none"
              d="M16012.2 15724.4h-3741.1c-159 0-287.7 128.9-287.7 287.8s128.7 287.8 287.7 287.8h3741.1c159.1 0 287.8-128.9 287.8-287.8s-128.7-287.8-287.8-287.8"
            ></path>
          </g>
          <g transform="scale(1.4939)">
            <path
              fill="#000"
              fillOpacity="1"
              fillRule="nonzero"
              stroke="none"
              d="M16012.2 14573.3h-4604.4c-159 0-287.7 128.9-287.7 287.8s128.7 287.8 287.7 287.8h4604.4c159.1 0 287.8-128.9 287.8-287.8s-128.7-287.8-287.8-287.8"
            ></path>
          </g>
          <g transform="scale(1.62577)">
            <path
              fill="#000"
              fillOpacity="1"
              fillRule="nonzero"
              stroke="none"
              d="M10482.5 15771.1c-437.5 0-793.29-355.8-793.29-793.3v-1586.6c0-437.4 355.79-793.3 793.29-793.3h1322.2c146.2 0 264.4-118.4 264.4-264.4v-683.8l870.8 870.8c49.5 49.5 116.7 77.4 187 77.4h1586.5c437.5 0 793.4 355.9 793.4 793.3v1586.6c0 437.5-355.9 793.3-793.4 793.3zm1322.2-5024.2c-34.1 0-68.5 6.6-101.2 20.1-98.9 41-163.2 137.5-163.2 244.4v1057.7h-1057.8c-728.95 0-1322.15 593.1-1322.15 1322.1v1586.6c0 729 593.2 1322.2 1322.15 1322.2h4230.9c729 0 1322.2-593.2 1322.2-1322.2v-1586.6c0-729-593.2-1322.1-1322.2-1322.1h-1477.1l-1244.7-1244.7c-50.6-50.7-118.2-77.5-186.9-77.5"
            ></path>
          </g>
        </g>
      </g>
    </svg>